<?xml version="1.0" encoding="UTF-8" standalone="no"?>
<svg
   width="400mm"
   height="300mm"
   viewBox="0 0 400 300"
   version="1.1"
   id="svg8"
   inkscape:version="1.1.1 (1:1.1+202109281949+c3084ef5ed)"
   sodipodi:docname="led_kamm_30.svg"
   xmlns:inkscape="http://www.inkscape.org/namespaces/inkscape"
   xmlns:sodipodi="http://sodipodi.sourceforge.net/DTD/sodipodi-0.dtd"
   xmlns:xlink="http://www.w3.org/1999/xlink"
   xmlns="http://www.w3.org/2000/svg"
   xmlns:svg="http://www.w3.org/2000/svg"
   xmlns:rdf="http://www.w3.org/1999/02/22-rdf-syntax-ns#"
   xmlns:cc="http://creativecommons.org/ns#"
   xmlns:dc="http://purl.org/dc/elements/1.1/">
  <defs
     id="defs2" />
  <sodipodi:namedview
     inkscape:bbox-nodes="false"
     inkscape:snap-bbox="true"
     inkscape:snap-page="true"
     id="base"
     pagecolor="#ffffff"
     bordercolor="#666666"
     borderopacity="1.0"
     inkscape:pageopacity="0.0"
     inkscape:pageshadow="2"
     inkscape:zoom="0.58850303"
     inkscape:cx="1075.6104"
     inkscape:cy="131.69006"
     inkscape:document-units="mm"
     inkscape:current-layer="g12859"
     inkscape:document-rotation="0"
     showgrid="false"
     inkscape:window-width="1920"
     inkscape:window-height="1015"
     inkscape:window-x="0"
     inkscape:window-y="0"
     inkscape:window-maximized="1"
     units="mm"
     inkscape:pagecheckerboard="0">
    <inkscape:grid
       type="xygrid"
       id="grid833"
       dotted="true" />
  </sodipodi:namedview>
  <metadata
     id="metadata5">
    <rdf:RDF>
      <cc:Work
         rdf:about="">
        <dc:format>image/svg+xml</dc:format>
        <dc:type
           rdf:resource="http://purl.org/dc/dcmitype/StillImage" />
      </cc:Work>
    </rdf:RDF>
  </metadata>
  <g
     inkscape:label="Ebene 1"
     inkscape:groupmode="layer"
     id="layer1">
    <g
       id="g12859">
      <g
         transform="translate(-1)"
         id="g1089">
        <g
           id="g884"
           transform="translate(7.0000894,-110)">
          <g
             id="g1081">
            <path
               id="path855"
               style="fill:none;stroke:#ff0000;stroke-width:0.2;stroke-miterlimit:4;stroke-dasharray:none"
               d="m -0.4000894,110 0.4,1 2.274e-4,1.142 c 0.182145,0.0796 0.1998646,0.15932 0.1997726,0.35811 -2.65e-4,0.19841 -0.0179716,0.2779 -0.1997726,0.35737 v 4.14243 L 0.9999106,117 v 2 -2 l 1.0001074,-9e-5 v -4.14139 c -0.182346,-0.0795 -0.2001104,-0.1595 -0.2001074,-0.35841 -3e-6,-0.19891 0.017761,-0.27864 0.2001074,-0.35811 L 1.9999106,111 l 0.4,-1 h 2.1 l 0.3,8 h 0.3 l 0.4,-8 h 2.0782449"
               sodipodi:nodetypes="cccccccccccscccccccc" />
            <use
               height="100%"
               width="100%"
               transform="translate(215.49986)"
               id="use1011"
               xlink:href="#path855"
               y="0"
               x="0" />
            <use
               x="0"
               y="0"
               xlink:href="#path855"
               id="use1013"
               transform="translate(207.52159)"
               width="100%"
               height="100%" />
            <use
               height="100%"
               width="100%"
               transform="translate(167.54334)"
               id="use1015"
               xlink:href="#path855"
               y="0"
               x="0" />
            <use
               x="0"
               y="0"
               xlink:href="#path855"
               id="use1017"
               transform="translate(159.56508)"
               width="100%"
               height="100%" />
            <use
               height="100%"
               width="100%"
               transform="translate(151.58682)"
               id="use1019"
               xlink:href="#path855"
               y="0"
               x="0" />
            <use
               x="0"
               y="0"
               xlink:href="#path855"
               id="use1021"
               transform="translate(143.60858)"
               width="100%"
               height="100%" />
            <use
               height="100%"
               width="100%"
               transform="translate(135.63032)"
               id="use1023"
               xlink:href="#path855"
               y="0"
               x="0" />
            <use
               x="0"
               y="0"
               xlink:href="#path855"
               id="use1025"
               transform="translate(127.65206)"
               width="100%"
               height="100%" />
            <use
               height="100%"
               width="100%"
               transform="translate(119.67381)"
               id="use1027"
               xlink:href="#path855"
               y="0"
               x="0" />
            <use
               x="0"
               y="0"
               xlink:href="#path855"
               id="use1029"
               transform="translate(111.69555)"
               width="100%"
               height="100%" />
            <use
               height="100%"
               width="100%"
               transform="translate(103.7173)"
               id="use1031"
               xlink:href="#path855"
               y="0"
               x="0" />
            <use
               x="0"
               y="0"
               xlink:href="#path855"
               id="use1033"
               transform="translate(95.739046)"
               width="100%"
               height="100%" />
            <use
               height="100%"
               width="100%"
               transform="translate(87.760786)"
               id="use1035"
               xlink:href="#path855"
               y="0"
               x="0" />
            <use
               x="0"
               y="0"
               xlink:href="#path855"
               id="use1037"
               transform="translate(79.782535)"
               width="100%"
               height="100%" />
            <use
               height="100%"
               width="100%"
               transform="translate(71.804283)"
               id="use1039"
               xlink:href="#path855"
               y="0"
               x="0" />
            <use
               x="0"
               y="0"
               xlink:href="#path855"
               id="use1041"
               transform="translate(63.826031)"
               width="100%"
               height="100%" />
            <use
               height="100%"
               width="100%"
               transform="translate(55.847771)"
               id="use1043"
               xlink:href="#path855"
               y="0"
               x="0" />
            <use
               x="0"
               y="0"
               xlink:href="#path855"
               id="use1045"
               transform="translate(47.86952)"
               width="100%"
               height="100%" />
            <use
               height="100%"
               width="100%"
               transform="translate(39.891268)"
               id="use1047"
               xlink:href="#path855"
               y="0"
               x="0" />
            <use
               x="0"
               y="0"
               xlink:href="#path855"
               id="use1049"
               transform="translate(31.913008)"
               width="100%"
               height="100%" />
            <use
               height="100%"
               width="100%"
               transform="translate(23.934764)"
               id="use1051"
               xlink:href="#path855"
               y="0"
               x="0" />
            <use
               x="0"
               y="0"
               xlink:href="#path855"
               id="use1053"
               transform="translate(15.956505)"
               width="100%"
               height="100%" />
            <use
               height="100%"
               width="100%"
               transform="translate(7.9782449)"
               id="use1055"
               xlink:href="#path855"
               y="0"
               x="0" />
            <use
               height="100%"
               width="100%"
               transform="translate(183.49986)"
               id="use1310"
               xlink:href="#path855"
               y="0"
               x="0" />
            <use
               x="0"
               y="0"
               xlink:href="#path855"
               id="use1312"
               transform="translate(175.52159)"
               width="100%"
               height="100%" />
            <use
               height="100%"
               width="100%"
               transform="translate(199.49986)"
               id="use1314"
               xlink:href="#path855"
               y="0"
               x="0" />
            <use
               x="0"
               y="0"
               xlink:href="#path855"
               id="use1316"
               transform="translate(191.52159)"
               width="100%"
               height="100%" />
            <use
               height="100%"
               width="100%"
               transform="translate(223.49986)"
               id="use13700"
               xlink:href="#path855"
               y="0"
               x="0" />
            <use
               height="100%"
               width="100%"
               transform="translate(231.49986)"
               id="use13702"
               xlink:href="#path855"
               y="0"
               x="0" />
          </g>
          <path
             id="path1083"
             style="fill:none;stroke:#ff0000;stroke-width:0.755906;stroke-miterlimit:4;stroke-dasharray:none"
             d="m -1.5121489,415.74804 h -7.937008 l -1.5118111,30.23622 h -0.755905 l -1.511812,-30.23622 -7.937007,10e-6 -1.511812,3.77951 v 49.13387 l 75.590553,90.70866 132.284011,1.9e-4 -5.4e-4,-3.77972 0.7559,-3.77953 -0.7559,-3.77953 5.4e-4,-26.45764 h 15.11742 l 1.5e-4,26.45764 -0.75591,3.77953 0.75591,3.77953 -1.5e-4,3.77972 h 479.99955 l 6.1e-4,-3.77972 0.7559,-3.77953 -0.7559,-3.77953 -6.1e-4,-26.45764 h 15.11937 l -6.5e-4,26.45764 -0.75591,3.77953 0.75591,3.77953 6.5e-4,3.77972 133.7946,-1.9e-4 75.5901,-90.70866 9.3e-4,-49.13387 -1.51128,-3.77951"
             transform="scale(0.26458333)"
             sodipodi:nodetypes="ccccccccccccccccccccccccccccccccc" />
        </g>
        <circle
           r="6"
           cy="23"
           cx="26"
           id="path1097"
           style="fill:none;stroke:#ff0000;stroke-width:0.2" />
        <use
           height="100%"
           width="100%"
           transform="translate(19.488889)"
           id="use1099"
           xlink:href="#path1097"
           y="0"
           x="0" />
        <use
           x="0"
           y="0"
           xlink:href="#path1097"
           id="use1101"
           transform="translate(44.977776)"
           width="100%"
           height="100%" />
        <use
           height="100%"
           width="100%"
           transform="translate(175.91109)"
           id="use1103"
           xlink:href="#path1097"
           y="0"
           x="0" />
        <use
           style="font-variation-settings:normal;opacity:1;vector-effect:none;fill:#000000;fill-opacity:1;stroke-width:1;stroke-linecap:butt;stroke-linejoin:miter;stroke-miterlimit:4;stroke-dasharray:none;stroke-dashoffset:0;stroke-opacity:1;stop-color:#000000;stop-opacity:1"
           x="0"
           y="0"
           xlink:href="#path1097"
           id="use1105"
           transform="translate(195.39998)"
           width="100%"
           height="100%" />
        <use
           x="0"
           y="0"
           xlink:href="#path1097"
           id="use1417"
           transform="translate(150.42221)"
           width="100%"
           height="100%" />
        <use
           x="0"
           y="0"
           xlink:href="#path1097"
           id="use2237"
           transform="translate(65.466669)"
           width="100%"
           height="100%" />
        <use
           x="0"
           y="0"
           xlink:href="#path1097"
           id="use2239"
           transform="translate(86.955554)"
           width="100%"
           height="100%" />
        <use
           x="0"
           y="0"
           xlink:href="#path1097"
           id="use2241"
           transform="translate(108.44444)"
           width="100%"
           height="100%" />
        <use
           x="0"
           y="0"
           xlink:href="#path1097"
           id="use2243"
           transform="translate(129.93332)"
           width="100%"
           height="100%" />
      </g>
      <path
         id="path1058"
         style="fill:none;stroke:#ff0000;stroke-width:0.2;stroke-miterlimit:4;stroke-dasharray:none"
         d="M 248.3999,10.000071 231.4,34.000121 v 3.99988 h 9.99991 v -0.49975 h 22.99996 v 0.49975 h 10.00042 v -3.99988 l -17.00042,-24.00005 h -2.49933 v 10.79993 h -3.99982 v -10.79993 z"
         sodipodi:nodetypes="ccccccccccccccc" />
      <use
         x="0"
         y="0"
         xlink:href="#path1058"
         id="use7116"
         transform="rotate(180,263.94987,19.100036)"
         width="100%"
         height="100%" />
      <g
         id="g16581"
         transform="translate(10)">
        <text
           xml:space="preserve"
           style="font-size:3.88056px;line-height:1.25;font-family:sans-serif;-inkscape-font-specification:sans-serif;letter-spacing:0px;word-spacing:0px;fill:#00ff00;stroke:none;stroke-width:0.264583"
           x="269.98065"
           y="36.335678"
           id="text11996"><tspan
             sodipodi:role="line"
             id="tspan11994"
             style="fill:#00ff00;stroke:none;stroke-width:0.264583"
             x="269.98065"
             y="36.335678">4mm</tspan></text>
        <path
           style="fill:none;stroke:#00ff00;stroke-width:1;stroke-linejoin:round;stop-color:#000000"
           d="M 283,33 H 265.99999"
           id="path12557" />
        <path
           style="fill:none;stroke:#00ff00;stroke-width:1;stroke-linejoin:round;stop-color:#000000"
           d="M 283,37 H 265.99999"
           id="path12755" />
      </g>
    </g>
    <use
       x="0"
       y="0"
       xlink:href="#g12859"
       id="use12861"
       transform="translate(0,40)"
       width="100%"
       height="100%" />
    <use
       x="0"
       y="0"
       xlink:href="#g12859"
       id="use12863"
       transform="translate(0,80)"
       width="100%"
       height="100%" />
    <use
       x="0"
       y="0"
       xlink:href="#g12859"
       id="use12865"
       transform="translate(0,120)"
       width="100%"
       height="100%" />
    <use
       x="0"
       y="0"
       xlink:href="#g12859"
       id="use12867"
       transform="translate(0,160)"
       width="100%"
       height="100%" />
    <use
       x="0"
       y="0"
       xlink:href="#g12859"
       id="use12869"
       transform="translate(0,200)"
       width="100%"
       height="100%" />
  </g>
</svg>
